<svg width="113" height="318" viewBox="0 0 113 318" fill="none" xmlns="http://www.w3.org/2000/svg">
	<path id="bodyOutline" fill-rule="evenodd" clip-rule="evenodd"
		d="M111.538 170.816C110.749 168.93 109.365 163.015 108.969 158.102C107.912 145.008 106.994 125.469 106.04 121.764C104.728 116.668 101.932 111.403 101.932 109.575C101.932 93.5856 98.3697 89.575 98.3697 86.9882C98.3697 85.3107 99.1485 86.2052 99.1485 76.5145C99.1485 66.8239 88.6087 56.6855 78.0681 56.6855L67.8246 50.2743V41.0312H67.7302C65.1562 43.9139 60.558 48.2993 56.3942 48.2993C52.2304 48.2993 47.6322 43.9139 45.0582 41.0312H44.9639V50.2743L34.7204 56.6855C24.1798 56.6855 13.64 66.8239 13.64 76.5145C13.64 86.2052 14.4196 85.3107 14.4196 86.9882C14.4196 89.575 10.8563 93.5856 10.8563 109.575C10.8563 111.403 8.05941 116.668 6.74751 121.764C5.79396 125.469 4.87712 145.008 3.82044 158.102C3.42363 163.015 2.04007 168.93 1.25083 170.816C-0.591596 175.22 8.2954 181.965 8.88973 182.205C9.65711 182.517 9.91844 180.969 10.1789 180.365C11.2478 177.88 7.2693 174.927 7.52539 173.202C7.83392 171.128 8.19838 167.487 9.63177 168.069C11.066 168.65 11.5511 171.951 12.9845 172.532C14.4179 173.113 15.0332 172.727 15.4719 171.635C15.7289 170.995 14.0997 166.989 12.6375 163.228C11.6044 160.57 11.781 158.664 11.781 158.664C11.781 158.664 23.1843 132.052 23.6658 126.684C25.2155 124.212 24.4953 122.974 24.6937 121.182C25.4882 113.987 25.4978 100.071 26.5553 100.071C27.5578 100.071 27.6688 104.432 27.6688 107.116C27.6688 113.266 32.2338 113.489 32.2338 121.764C32.2338 128.025 30.5636 125.454 30.5636 136.412C30.5636 139.655 25.1447 142.637 25.1447 155.608C25.1447 158.962 21.5822 165.224 21.5822 178.791C21.5822 204.733 28.4485 217.369 28.4485 228.328C28.4485 240.068 26.3325 239.062 26.3325 252.704C26.3325 266.346 34.7947 283.789 34.7947 293.294C34.7947 314.204 27.8917 308.837 27.8917 313.645C27.8917 314.913 29.2272 315.733 29.2272 315.733L41.0299 317H47.1157L48.9721 314.764C48.9721 314.764 47.3386 311.931 47.3386 310.44C47.3386 308.949 48.1549 306.042 48.1549 304.252C48.1549 302.463 45.8545 296.201 45.8545 290.536C45.8545 284.871 45.7059 268.582 45.7059 268.582C45.7059 268.582 46.2626 263.215 46.2626 257.624C46.2626 252.033 42.8112 249.238 42.8112 246.778C42.8112 244.318 52.7199 226.427 52.7199 206.523C52.7199 195.9 55.2807 178.008 55.2807 165.597H56.3942H57.5077C57.5077 178.008 60.0686 195.9 60.0686 206.523C60.0686 226.427 69.9782 244.318 69.9782 246.778C69.9782 249.238 66.5258 252.033 66.5258 257.624C66.5258 263.215 67.0826 268.582 67.0826 268.582C67.0826 268.582 66.9349 284.871 66.9349 290.536C66.9349 296.201 64.6336 302.463 64.6336 304.252C64.6336 306.042 65.4499 308.949 65.4499 310.44C65.4499 311.931 63.8172 314.764 63.8172 314.764L65.6728 317H71.7594L83.5613 315.733C83.5613 315.733 84.8976 314.913 84.8976 313.645C84.8976 308.837 77.9947 314.204 77.9947 293.294C77.9947 283.789 86.456 266.346 86.456 252.704C86.456 239.062 84.34 240.068 84.34 228.328C84.34 217.369 91.2063 204.733 91.2063 178.791C91.2063 165.224 87.6438 158.962 87.6438 155.608C87.6438 142.637 82.2249 139.655 82.2249 136.412C82.2249 125.454 80.5546 128.025 80.5546 121.764C80.5546 113.489 85.1196 113.266 85.1196 107.116C85.1196 104.432 85.2315 100.071 86.2331 100.071C87.2907 100.071 87.3003 113.987 88.0948 121.182C88.2932 122.974 87.573 124.212 89.1226 126.684C89.6051 132.052 101.008 158.664 101.008 158.664C101.008 158.664 101.184 160.57 100.152 163.228C98.6896 166.989 97.0596 170.995 97.3165 171.635C97.7553 172.727 98.3706 173.113 99.804 172.532C101.238 171.951 101.723 168.65 103.157 168.069C104.59 167.487 104.955 171.128 105.263 173.202C105.52 174.927 101.541 177.88 102.61 180.365C102.87 180.969 103.132 182.517 103.9 182.205C104.492 181.965 113.38 175.22 111.538 170.816Z"
		fill="white" />
	<path id="leftChest" fill-rule="evenodd" clip-rule="evenodd"
		d="M51.7179 67.3089C51.0641 66.0116 41.6973 61.0469 39.3593 61.0469C39.3593 63.3949 34.3485 61.8299 28.4481 71.7812C26.2569 75.4775 24.4337 78.3856 22.7565 80.6345H22.7573C25.417 82.1074 24.5508 83.2985 27.0007 85.4236C29.4497 87.5479 37.578 90.7904 42.5879 90.7904C47.5986 90.7904 54.5637 87.7717 54.5637 87.7717V80.1675C54.5637 71.8936 52.7335 69.3217 51.7179 67.3089Z"
		fill="#C73000" />
	<path id="absTopLeft" fill-rule="evenodd" clip-rule="evenodd"
		d="M44.5179 104.739V97.2031C44.5179 94.5934 45.5571 92.6553 47.487 92.6553C49.4168 92.6553 53.3507 91.0156 53.7965 91.0156C54.2414 91.0156 55.1329 91.1648 55.1329 92.097V102.234C55.1329 103.706 53.3883 103.799 50.976 103.799C49.5654 103.799 46.5588 105.074 45.9286 105.708C45.2976 106.342 44.5179 105.484 44.5179 104.739Z"
		fill="white" />
	<path id="absMidLeft" fill-rule="evenodd" clip-rule="evenodd"
		d="M55.1325 108.858C55.1325 107.74 54.6134 106.846 53.277 106.846H49.8622C48.5258 106.846 44.7405 109.156 44.7405 111.243V116.099C44.7405 117.068 45.1862 117.59 46.374 117.59H51.57C52.2378 117.59 55.1325 116.248 55.1325 114.384V108.858Z"
		fill="white" />
	<path id="absLowerLeft" fill-rule="evenodd" clip-rule="evenodd"
		d="M44.4254 127.747V122.202C44.4254 121.251 44.9262 119.909 46.3736 119.909H52.386C53.2766 119.909 55.0587 121.027 55.0587 122.258V127.747C55.0587 128.585 54.6689 130.039 53.7223 130.039H47.4871C46.4846 130.039 44.4254 129.088 44.4254 127.747Z"
		fill="white" />
	<path id="path1" fill-rule="evenodd" clip-rule="evenodd"
		d="M53.4253 132.722H47.2644C46.0766 132.722 44.7402 133.691 44.7402 134.809C44.7402 135.927 50.2334 160.529 54.5388 160.529H55.058C55.2817 154.721 55.058 135.803 55.058 134.809C55.058 133.616 54.8351 132.722 53.4253 132.722Z"
		fill="white" />
	<path id="absTopRight" fill-rule="evenodd" clip-rule="evenodd"
		d="M68.2704 104.739V97.2031C68.2704 94.5934 67.2312 92.6553 65.3014 92.6553C63.3716 92.6553 59.4376 91.0156 58.9919 91.0156C58.547 91.0156 57.6564 91.1648 57.6564 92.097V102.234C57.6564 103.706 59.4009 103.799 61.8132 103.799C63.223 103.799 66.2296 105.074 66.8606 105.708C67.4908 106.342 68.2704 105.484 68.2704 104.739Z"
		fill="white" />
	<path id="absMidRight" fill-rule="evenodd" clip-rule="evenodd"
		d="M57.6564 108.858C57.6564 107.74 58.1755 106.846 59.5119 106.846H62.9258C64.2622 106.846 68.0484 109.156 68.0484 111.243V116.099C68.0484 117.068 67.6027 117.59 66.4149 117.59H61.2189C60.5511 117.59 57.6564 116.248 57.6564 114.384V108.858Z"
		fill="white" />
	<path id="absLowerRight" fill-rule="evenodd" clip-rule="evenodd"
		d="M68.3635 127.747V122.202C68.3635 121.251 67.8627 119.909 66.4153 119.909H60.403C59.5123 119.909 57.7302 121.027 57.7302 122.258V127.747C57.7302 128.585 58.12 130.039 59.0666 130.039H65.3018C66.3034 130.039 68.3635 129.088 68.3635 127.747Z"
		fill="white" />
	<path id="path2" fill-rule="evenodd" clip-rule="evenodd"
		d="M59.3635 132.722H65.5244C66.7122 132.722 68.0485 133.691 68.0485 134.809C68.0485 135.927 62.5554 160.529 58.25 160.529H57.7308C57.507 154.721 57.7308 135.803 57.7308 134.809C57.7308 133.616 57.9528 132.722 59.3635 132.722Z"
		fill="white" />
	<path id="bicepsLeft1" fill-rule="evenodd" clip-rule="evenodd"
		d="M24.6934 77.854C24.4592 78.2077 24.2302 78.551 24.0029 78.8828C24.2302 78.551 24.4592 78.2086 24.6934 77.854Z"
		fill="white" />
	<path id="path3" fill-rule="evenodd" clip-rule="evenodd"
		d="M22.7572 80.6342C22.9075 80.4324 23.0613 80.2173 23.2143 80.0049C20.1753 84.2279 17.6625 86.3222 14.4191 86.9885C14.4191 89.5753 10.8566 93.5859 10.8566 109.576C10.8566 112.819 18.5636 116.99 22.1017 109.576C24.3968 104.767 25.2595 102.763 25.7961 101.582C26.0688 100.633 26.3275 100.072 26.5556 100.072C27.3344 98.7296 27.0005 85.4234 27.0005 85.4234C24.5515 83.2983 25.4168 82.1072 22.7572 80.6342Z"
		fill="#C73000" />
	<path id="head" fill-rule="evenodd" clip-rule="evenodd"
		d="M56.3944 1C46.3162 1 41.2775 9.95333 41.2775 14.6249C41.2775 19.2964 43.0211 38.5671 43.0211 38.5671C43.0211 38.5671 50.1924 48.2991 56.3944 48.2991C62.5965 48.2991 69.7678 38.5671 69.7678 38.5671C69.7678 38.5671 71.5114 19.2964 71.5114 14.6249C71.5114 9.95333 66.4727 1 56.3944 1Z"
		fill="white" />
	<path id="abs" fill-rule="evenodd" clip-rule="evenodd"
		d="M71.0172 141.445C71.0172 133.17 73.1699 133.84 73.1699 129.443C73.1699 120.273 71.0172 112.446 71.0172 108.346C71.0172 104.246 71.3878 90.7907 71.3878 90.7907L71.213 90.7503C70.8642 90.7766 70.526 90.7907 70.2 90.7907C65.1901 90.7907 58.2251 87.772 58.2251 87.772H56.3949H54.5639C54.5639 87.772 47.5988 90.7907 42.5881 90.7907C42.2638 90.7907 41.9247 90.7766 41.576 90.7503L41.4003 90.7907C41.4003 90.7907 41.7718 104.246 41.7718 108.346C41.7718 112.446 39.6191 120.273 39.6191 129.443C39.6191 133.84 41.7718 133.17 41.7718 141.445C41.7718 144.352 39.5448 146.401 36.65 146.401C36.65 153.074 52.2381 165.598 56.3949 165.598C60.5509 165.598 76.1389 153.074 76.1389 146.401C73.2433 146.401 71.0172 144.352 71.0172 141.445Z"
		fill="white" />
	<path id="path4" fill-rule="evenodd" clip-rule="evenodd"
		d="M76.1387 146.402C78.0685 141.37 82.2253 136.413 82.2253 136.413L76.1387 146.402Z" fill="white" />
	<path id="outerThighLeft1" fill-rule="evenodd" clip-rule="evenodd"
		d="M28.4042 226.796C28.4042 227.697 28.9304 228.216 29.3761 228.216C29.8219 228.216 30.8541 223.138 30.8541 219.755C30.6749 219.761 30.5639 219.296 30.5639 217.994C30.5639 213.362 26.2209 204.883 26.2209 188.632C26.2209 172.381 31.1574 154.639 32.2359 147.616L32.0034 144.342C31.9029 142.485 31.791 137.989 31.791 137.989L30.5639 136.317C30.5639 136.35 30.5639 136.38 30.5639 136.413C30.5639 139.656 25.145 142.637 25.145 155.608C25.145 158.963 21.5825 165.224 21.5825 178.792C21.5825 179.588 21.5895 180.37 21.6017 181.142C21.6052 181.353 21.6122 181.556 21.6166 181.765C21.628 182.319 21.6393 182.872 21.6568 183.414C21.6656 183.673 21.6778 183.925 21.6874 184.182C21.7058 184.663 21.7232 185.145 21.7468 185.616C21.7599 185.887 21.7766 186.151 21.7905 186.419C21.815 186.866 21.8395 187.314 21.8674 187.752C21.8849 188.02 21.905 188.284 21.9234 188.549C21.954 188.978 21.9846 189.406 22.0178 189.826C22.0388 190.083 22.0624 190.335 22.0842 190.59C22.12 191.009 22.1567 191.429 22.1961 191.839C22.2197 192.082 22.245 192.32 22.2686 192.559C22.3114 192.974 22.3543 193.388 22.3997 193.795C22.4251 194.02 22.4504 194.241 22.4766 194.462C22.5247 194.877 22.5745 195.289 22.6261 195.695C22.6514 195.899 22.6785 196.101 22.7048 196.304C22.7598 196.722 22.8158 197.136 22.8743 197.545C22.8997 197.725 22.925 197.903 22.9512 198.082C23.0133 198.508 23.0762 198.931 23.1418 199.348C23.1654 199.501 23.189 199.652 23.2134 199.803C23.2834 200.244 23.355 200.682 23.4276 201.113C23.4477 201.231 23.4678 201.348 23.4879 201.464C23.5674 201.931 23.6496 202.393 23.7317 202.848C23.7448 202.921 23.7588 202.997 23.7728 203.071C23.8654 203.579 23.9607 204.08 24.056 204.573C24.0586 204.587 24.0612 204.602 24.0647 204.616C25.8766 213.942 28.0695 220.698 28.4007 226.793L28.4042 226.796Z"
		fill="white" />
	<path id="path5" fill-rule="evenodd" clip-rule="evenodd"
		d="M56.3944 48.2996C55.1909 48.2996 53.9515 47.931 52.7349 47.3394H52.7332C52.7332 51.6168 53.574 63.9917 56.3944 63.9917C59.2149 63.9917 60.0557 51.6168 60.0557 47.3394H60.0539C58.8373 47.931 57.5979 48.2996 56.3944 48.2996Z"
		fill="white" />
	<path id="outerThighLeft2" fill-rule="evenodd" clip-rule="evenodd"
		d="M32.236 147.616C31.1575 154.638 26.2211 172.381 26.2211 188.632C26.2211 204.882 30.5641 213.361 30.5641 217.993C30.5641 222.625 31.9738 216.661 32.791 216.661C33.6065 216.661 36.5878 222.345 36.5878 225.867C36.5878 226.033 36.6026 226.126 36.6315 226.155C36.621 225.977 36.6315 225.773 36.6254 225.588C36.6096 225.113 36.593 224.639 36.6096 224.124C36.6149 223.943 36.6323 223.749 36.6402 223.564C36.6682 222.987 36.6988 222.406 36.7556 221.796C36.7661 221.683 36.7818 221.566 36.7932 221.452C37.1664 217.695 37.974 213.528 38.4485 210.249C38.4634 210.155 38.4809 210.048 38.494 209.956C38.5919 209.26 38.6732 208.608 38.7282 208.013C39.1731 203.245 41.9927 193.412 43.3605 187.594C43.3605 187.594 43.3631 187.543 43.3675 187.466C43.3736 187.368 43.385 187.156 43.4016 186.863C43.4042 186.818 43.4068 186.752 43.4095 186.704C43.4234 186.434 43.4392 186.126 43.4584 185.736C43.4584 185.727 43.4584 185.714 43.4593 185.706C43.4803 185.269 43.5021 184.772 43.5257 184.206C43.5257 184.184 43.5266 184.156 43.5275 184.134C43.5965 182.425 43.6673 180.193 43.6988 177.678C43.7023 177.483 43.7014 177.273 43.7031 177.074C43.7101 176.411 43.7162 175.746 43.7162 175.055C43.7171 174.155 43.6979 172.247 43.6979 172.216C43.6979 167.984 38.855 154.394 36.9706 148.489C36.5965 147.316 36.7731 146.878 36.6498 146.401C35.9095 143.528 31.7903 137.989 31.7903 137.989L32.236 147.616Z"
		fill="white" />
	<path id="quadricepsLeft" fill-rule="evenodd" clip-rule="evenodd"
		d="M43.6978 172.218C43.6978 172.248 43.6978 172.277 43.6978 172.307C43.7118 173.236 43.717 174.156 43.7161 175.054C43.7161 175.747 43.71 176.411 43.703 177.074C43.7013 177.273 43.7022 177.483 43.6987 177.678C43.6672 180.194 43.5964 182.425 43.5282 184.135C43.5265 184.157 43.5256 184.184 43.5256 184.207C43.502 184.771 43.4802 185.27 43.4601 185.705C43.4592 185.715 43.4592 185.727 43.4583 185.737C43.44 186.126 43.4233 186.435 43.4094 186.703C43.4067 186.753 43.405 186.817 43.4015 186.863C43.3858 187.156 43.3735 187.368 43.3674 187.467C43.363 187.543 43.3604 187.594 43.3604 187.594C41.9926 193.412 39.1739 203.245 38.7281 208.014C38.6731 208.608 38.5918 209.26 38.4939 209.957C38.4939 209.958 38.493 209.96 38.493 209.962C38.3645 210.873 38.2037 211.875 38.0342 212.907C37.8908 213.781 37.7414 214.688 37.5937 215.609C37.5893 215.635 37.5849 215.662 37.5806 215.688C37.4293 216.631 37.2816 217.589 37.1488 218.54C37.1453 218.558 37.1435 218.576 37.1409 218.594C37.0055 219.559 36.8866 220.518 36.7939 221.452C36.7904 221.491 36.7852 221.528 36.7808 221.567C36.773 221.645 36.7616 221.727 36.7546 221.805C36.7004 222.399 36.6698 222.967 36.6427 223.531C36.6384 223.618 36.6322 223.709 36.6279 223.795C36.6209 223.906 36.613 224.018 36.6095 224.125C36.5938 224.638 36.6095 225.113 36.6261 225.589V225.612C36.6357 225.906 36.627 226.224 36.6506 226.502C37.0955 231.719 40.8065 231.422 40.8065 231.422C43.2748 231.422 48.1081 229.881 49.6699 227.047C49.8412 226.43 50.0082 225.8 50.1716 225.165C51.6286 219.496 52.7203 213.123 52.7203 206.524C52.7203 205.367 52.7526 204.119 52.8059 202.807C52.8059 193.526 48.2374 182.225 43.6978 172.218Z"
		fill="white" />
	<path id="outerThighRight1" fill-rule="evenodd" clip-rule="evenodd"
		d="M84.3847 226.796C84.3847 227.697 83.8576 228.216 83.4128 228.216C82.967 228.216 81.9348 223.138 81.9348 219.755C82.1131 219.761 82.225 219.296 82.225 217.994C82.225 213.362 86.568 204.883 86.568 188.632C86.568 172.381 81.6315 154.639 80.553 147.616L80.7855 144.342C80.886 142.485 80.9979 137.989 80.9979 137.989L82.225 136.317C82.225 136.35 82.225 136.38 82.225 136.413C82.225 139.656 87.6439 142.637 87.6439 155.608C87.6439 158.963 91.2064 165.224 91.2064 178.792C91.2064 179.588 91.1994 180.37 91.1871 181.142C91.1836 181.353 91.1766 181.556 91.1723 181.765C91.1609 182.319 91.1487 182.872 91.1312 183.414C91.1233 183.673 91.1111 183.925 91.1015 184.182C91.0831 184.663 91.0656 185.145 91.042 185.616C91.0289 185.887 91.0123 186.151 90.9975 186.419C90.9739 186.866 90.9494 187.314 90.9214 187.752C90.9039 188.02 90.8838 188.284 90.8646 188.549C90.8349 188.978 90.8043 189.406 90.7702 189.826C90.7501 190.083 90.7265 190.335 90.7047 190.59C90.6688 191.009 90.6321 191.429 90.5928 191.839C90.5692 192.082 90.5439 192.32 90.5203 192.559C90.4774 192.974 90.4346 193.388 90.3892 193.795C90.3638 194.02 90.3385 194.241 90.3122 194.462C90.2633 194.877 90.2143 195.289 90.1628 195.695C90.1374 195.899 90.1103 196.101 90.0841 196.304C90.0291 196.722 89.9731 197.136 89.9146 197.545C89.8892 197.725 89.8639 197.903 89.8376 198.082C89.7756 198.508 89.7118 198.931 89.6471 199.348C89.6235 199.501 89.5999 199.652 89.5754 199.803C89.5055 200.244 89.4339 200.682 89.3604 201.113C89.3412 201.231 89.3211 201.348 89.301 201.464C89.2215 201.931 89.1393 202.393 89.0572 202.848C89.0432 202.921 89.0301 202.997 89.0161 203.071C88.9226 203.579 88.8282 204.08 88.7329 204.573C88.7303 204.587 88.7276 204.602 88.7242 204.616C86.9123 213.942 84.7194 220.698 84.3882 226.793L84.3847 226.796Z"
		fill="white" />
	<path id="outerThighRight2" fill-rule="evenodd" clip-rule="evenodd"
		d="M80.5527 147.616C81.6313 154.638 86.5677 172.381 86.5677 188.632C86.5677 204.882 82.2247 213.361 82.2247 217.993C82.2247 222.625 80.8149 216.661 79.9977 216.661C79.1814 216.661 76.201 222.345 76.201 225.867C76.201 226.033 76.1853 226.126 76.1573 226.155C76.1678 225.977 76.1573 225.773 76.1634 225.588C76.1792 225.113 76.1958 224.639 76.1792 224.124C76.1739 223.943 76.1564 223.749 76.1477 223.564C76.1206 222.987 76.0891 222.406 76.0332 221.796C76.0218 221.683 76.007 221.566 75.9947 221.452C75.6224 217.695 74.8148 213.528 74.3402 210.249C74.3254 210.155 74.3079 210.048 74.2948 209.956C74.1969 209.26 74.1156 208.608 74.0605 208.013C73.6148 203.245 70.7961 193.412 69.4283 187.594C69.4283 187.594 69.4256 187.543 69.4213 187.466C69.4151 187.368 69.4038 187.156 69.3872 186.863C69.3846 186.818 69.3811 186.752 69.3793 186.704C69.3653 186.434 69.3487 186.126 69.3304 185.736C69.3295 185.727 69.3295 185.714 69.3295 185.706C69.3085 185.269 69.2867 184.772 69.2631 184.206C69.2631 184.184 69.2622 184.156 69.2604 184.134C69.1923 182.425 69.1215 180.193 69.09 177.678C69.0865 177.483 69.0874 177.273 69.0848 177.074C69.0786 176.411 69.0717 175.746 69.0717 175.055C69.0717 174.155 69.0909 172.247 69.0909 172.216C69.0909 167.984 73.9338 154.394 75.8182 148.489C76.1923 147.316 76.0157 146.878 76.1389 146.401C76.8792 143.528 80.9985 137.989 80.9985 137.989L80.5527 147.616Z"
		fill="white" />
	<path id="quadricepsRight" fill-rule="evenodd" clip-rule="evenodd"
		d="M69.0912 172.218C69.0912 172.248 69.0903 172.277 69.0903 172.307C69.0772 173.236 69.0719 174.156 69.0719 175.054C69.0719 175.747 69.0789 176.411 69.085 177.074C69.0877 177.273 69.0868 177.483 69.0903 177.678C69.1217 180.194 69.1925 182.425 69.2607 184.135C69.2625 184.157 69.2625 184.184 69.2633 184.207C69.2869 184.771 69.3088 185.27 69.3289 185.705C69.3298 185.715 69.3298 185.727 69.3306 185.737C69.349 186.126 69.3647 186.435 69.3796 186.703C69.3813 186.753 69.3839 186.817 69.3874 186.863C69.4032 187.156 69.4154 187.368 69.4207 187.467C69.4259 187.543 69.4285 187.594 69.4285 187.594C70.7964 193.412 73.6151 203.245 74.0608 208.014C74.1159 208.608 74.1972 209.26 74.295 209.957C74.295 209.958 74.2959 209.96 74.2959 209.962C74.4244 210.873 74.5852 211.875 74.7548 212.907C74.8972 213.781 75.0476 214.688 75.1953 215.609C75.1996 215.635 75.204 215.662 75.2084 215.688C75.3596 216.631 75.5073 217.589 75.6402 218.54C75.6428 218.558 75.6454 218.576 75.648 218.594C75.7826 219.559 75.9024 220.518 75.995 221.452C75.9985 221.491 76.0029 221.528 76.0081 221.567C76.016 221.645 76.0273 221.727 76.0343 221.805C76.0885 222.399 76.1191 222.967 76.1462 223.531C76.1506 223.618 76.1567 223.709 76.1611 223.795C76.1681 223.906 76.1759 224.018 76.1794 224.125C76.1952 224.638 76.1794 225.113 76.1628 225.589V225.612C76.1532 225.906 76.1619 226.224 76.1383 226.502C75.6935 231.719 71.9815 231.422 71.9815 231.422C69.5142 231.422 64.68 229.881 63.119 227.047C62.9477 226.43 62.7808 225.8 62.6164 225.165C61.1603 219.496 60.0687 213.123 60.0687 206.524C60.0687 205.367 60.0363 204.119 59.983 202.807C59.983 193.526 64.5515 182.225 69.0912 172.218Z"
		fill="white" />
	<path id="calfLeft1" fill-rule="evenodd" clip-rule="evenodd"
		d="M46.0347 293.403C46.0373 293.41 46.0408 293.416 46.0434 293.422C45.9351 292.458 45.8538 291.49 45.8538 290.536C45.8538 284.871 45.7061 268.583 45.7061 268.583C45.7061 268.583 46.2628 263.215 46.2628 257.624C46.2628 252.033 42.8113 249.237 42.8113 246.778C40.9304 251.992 36.4293 271.935 46.0347 293.403Z"
		fill="white" />
	<path id="calfLeft2" fill-rule="evenodd" clip-rule="evenodd"
		d="M26.3326 252.704C26.3326 264.481 32.6282 279.079 34.3526 288.969C34.3526 288.964 34.3535 288.959 34.3544 288.954C36.9275 261.904 30.1836 254.267 26.566 245.947C26.4244 247.748 26.3326 249.909 26.3326 252.704Z"
		fill="white" />
	<path id="calfRight1" fill-rule="evenodd" clip-rule="evenodd"
		d="M66.7541 293.403C66.7515 293.41 66.748 293.416 66.7445 293.422C66.8538 292.458 66.935 291.49 66.935 290.536C66.935 284.871 67.0827 268.583 67.0827 268.583C67.0827 268.583 66.526 263.215 66.526 257.624C66.526 252.033 69.9775 249.237 69.9775 246.778C71.8575 251.992 76.3596 271.935 66.7541 293.403Z"
		fill="white" />
	<path id="calfRight2" fill-rule="evenodd" clip-rule="evenodd"
		d="M86.4558 252.704C86.4558 264.481 80.1611 279.079 78.4367 288.969C78.4358 288.964 78.4349 288.959 78.4341 288.954C75.861 261.904 82.6057 254.267 86.2233 245.947C86.3649 247.748 86.4558 249.909 86.4558 252.704Z"
		fill="white" />
	<path id="path6" fill-rule="evenodd" clip-rule="evenodd"
		d="M10.8564 109.576C10.8564 108.776 10.8722 108.029 10.8888 107.289C10.8696 108.022 10.8564 108.776 10.8564 109.576Z"
		fill="white" />
	<path id="bicepsLeft2" fill-rule="evenodd" clip-rule="evenodd"
		d="M14.6551 126.684C15.4094 122.086 16.1637 120.425 14.6551 117.59C13.1466 114.755 12.1406 118.657 8.08516 117.59C7.58697 118.946 7.11063 120.358 6.74791 121.764C5.92284 124.969 6.1868 140.195 5.58984 152.724H5.59072C5.59072 152.724 8.87177 146.182 9.12349 139.617C9.37433 133.051 13.9009 131.283 14.6551 126.684Z"
		fill="white" />
	<path id="bicepsLeft3" fill-rule="evenodd" clip-rule="evenodd"
		d="M15.526 134.63C13.3978 141.131 11.7809 158.664 11.7809 158.664C11.7809 158.664 23.1842 132.052 23.6657 126.684C23.6657 126.684 17.6543 128.128 15.526 134.63Z"
		fill="white" />
	<path id="chestRight" fill-rule="evenodd" clip-rule="evenodd"
		d="M61.0705 67.3089C61.7252 66.0116 71.0911 61.0469 73.4291 61.0469C73.4291 63.3949 78.4398 61.8299 84.3412 71.7812C86.5324 75.4775 88.3547 78.3856 90.0319 80.6345C87.3723 82.1074 88.2376 83.2985 85.7877 85.4236C83.3387 87.5479 75.2112 90.7904 70.2005 90.7904C65.1898 90.7904 58.2247 87.7717 58.2247 87.7717V80.1675C58.2247 71.8936 60.0558 69.3217 61.0705 67.3089Z"
		fill="#C73000" />
	<path id="path7" fill-rule="evenodd" clip-rule="evenodd"
		d="M88.095 77.854C88.3292 78.2077 88.5591 78.551 88.7854 78.8828C88.5591 78.551 88.3292 78.2086 88.095 77.854Z"
		fill="white" />
	<path id="bicepsRight" fill-rule="evenodd" clip-rule="evenodd"
		d="M90.0317 80.6342C89.8813 80.4324 89.7275 80.2173 89.5737 80.0049C92.6135 84.2279 95.1263 86.3222 98.3698 86.9885C98.3698 89.5753 101.932 93.5859 101.932 109.576C101.932 112.819 94.2252 116.99 90.6872 109.576C88.392 104.767 87.5285 102.763 86.9927 101.582C86.7191 100.633 86.4613 100.072 86.2332 100.072C85.4544 98.7296 85.7883 85.4234 85.7883 85.4234C88.2373 83.2983 87.372 82.1072 90.0317 80.6342Z"
		fill="#C73000" />
	<path id="path8" fill-rule="evenodd" clip-rule="evenodd"
		d="M89.4435 79.8257C89.232 79.5299 89.0179 79.2226 88.8011 78.9058C89.0188 79.2226 89.232 79.5299 89.4435 79.8257Z"
		fill="white" />
	<path id="forearmRight1" fill-rule="evenodd" clip-rule="evenodd"
		d="M98.1338 126.684C97.3795 122.086 96.6252 120.425 98.1338 117.59C99.6423 114.755 100.648 118.657 104.704 117.59C105.202 118.946 105.678 120.358 106.04 121.764C106.866 124.969 106.602 140.195 107.199 152.724H107.198C107.198 152.724 103.917 146.182 103.665 139.617C103.414 133.051 98.8881 131.283 98.1338 126.684Z"
		fill="white" />
	<path id="forearmRight2" fill-rule="evenodd" clip-rule="evenodd"
		d="M97.2628 134.63C99.391 141.131 101.008 158.664 101.008 158.664C101.008 158.664 89.6046 132.052 89.123 126.684C89.123 126.684 95.1345 128.128 97.2628 134.63Z"
		fill="white" />
	<path id="path9" fill-rule="evenodd" clip-rule="evenodd"
		d="M41.7048 22.8242C41.7048 21.5479 39.8842 21.188 38.6991 21.188C37.5121 21.188 37.0559 23.0208 37.9684 27.328C38.8808 31.6362 42.5159 32.8888 42.5159 32.8888L41.7048 22.8242Z"
		fill="white" />
	<path id="path10" fill-rule="evenodd" clip-rule="evenodd"
		d="M71.084 22.8242C71.084 21.5479 72.9037 21.188 74.0898 21.188C75.2767 21.188 75.7329 23.0208 74.8205 27.328C73.9071 31.6362 70.2729 32.8888 70.2729 32.8888L71.084 22.8242Z"
		fill="white" />
	<path id="shoulderLeft" fill-rule="evenodd" clip-rule="evenodd"
		d="M13.6398 76.515C13.6398 86.2057 14.4194 85.3112 14.4194 86.9887C19.3183 85.9827 22.5469 81.7334 28.4482 71.7812C34.3487 61.8298 39.3594 63.3949 39.3594 61.0468C39.3594 59.257 35.9079 58.4749 34.7202 56.686C24.1804 56.686 13.6398 66.8235 13.6398 76.515Z"
		stroke="#00474F" stroke-width="1.742" stroke-linejoin="round" />
	<path id="chestLeft" fill-rule="evenodd" clip-rule="evenodd"
		d="M51.7179 67.3089C51.0641 66.0116 41.6973 61.0469 39.3593 61.0469C39.3593 63.3949 34.3485 61.8299 28.4481 71.7812C26.2569 75.4775 24.4337 78.3856 22.7565 80.6345H22.7573C25.417 82.1074 24.5508 83.2985 27.0007 85.4236C29.4497 87.5479 37.578 90.7904 42.5879 90.7904C47.5986 90.7904 54.5637 87.7717 54.5637 87.7717V80.1675C54.5637 71.8936 52.7335 69.3217 51.7179 67.3089Z"
		stroke="#00474F" stroke-width="1.742" stroke-linejoin="round" />
	<path id="path11" fill-rule="evenodd" clip-rule="evenodd"
		d="M44.5179 104.739V97.2031C44.5179 94.5934 45.5571 92.6553 47.487 92.6553C49.4168 92.6553 53.3507 91.0156 53.7965 91.0156C54.2414 91.0156 55.1329 91.1648 55.1329 92.097V102.234C55.1329 103.706 53.3883 103.799 50.976 103.799C49.5654 103.799 46.5588 105.074 45.9286 105.708C45.2976 106.342 44.5179 105.484 44.5179 104.739Z"
		stroke="#00474F" stroke-width="1.742" stroke-linejoin="round" />
	<path id="path12" fill-rule="evenodd" clip-rule="evenodd"
		d="M55.1325 108.858C55.1325 107.74 54.6134 106.846 53.277 106.846H49.8622C48.5258 106.846 44.7405 109.156 44.7405 111.243V116.099C44.7405 117.068 45.1862 117.59 46.374 117.59H51.57C52.2378 117.59 55.1325 116.248 55.1325 114.384V108.858Z"
		stroke="#00474F" stroke-width="1.742" stroke-linejoin="round" />
	<path id="path13" fill-rule="evenodd" clip-rule="evenodd"
		d="M44.4254 127.747V122.202C44.4254 121.251 44.9262 119.909 46.3736 119.909H52.386C53.2766 119.909 55.0587 121.027 55.0587 122.258V127.747C55.0587 128.585 54.6689 130.039 53.7223 130.039H47.4871C46.4846 130.039 44.4254 129.088 44.4254 127.747Z"
		stroke="#00474F" stroke-width="1.742" stroke-linejoin="round" />
	<path id="path14" fill-rule="evenodd" clip-rule="evenodd"
		d="M53.4253 132.722H47.2644C46.0766 132.722 44.7402 133.691 44.7402 134.809C44.7402 135.927 50.2334 160.529 54.5388 160.529H55.058C55.2817 154.721 55.058 135.803 55.058 134.809C55.058 133.616 54.8351 132.722 53.4253 132.722Z"
		stroke="#00474F" stroke-width="1.742" stroke-linejoin="round" />
	<path id="path15" fill-rule="evenodd" clip-rule="evenodd"
		d="M68.2704 104.739V97.2031C68.2704 94.5934 67.2312 92.6553 65.3014 92.6553C63.3716 92.6553 59.4376 91.0156 58.9919 91.0156C58.547 91.0156 57.6564 91.1648 57.6564 92.097V102.234C57.6564 103.706 59.4009 103.799 61.8132 103.799C63.223 103.799 66.2296 105.074 66.8606 105.708C67.4908 106.342 68.2704 105.484 68.2704 104.739Z"
		stroke="#00474F" stroke-width="1.742" stroke-linejoin="round" />
	<path id="path16" fill-rule="evenodd" clip-rule="evenodd"
		d="M57.6564 108.858C57.6564 107.74 58.1755 106.846 59.5119 106.846H62.9258C64.2622 106.846 68.0484 109.156 68.0484 111.243V116.099C68.0484 117.068 67.6027 117.59 66.4149 117.59H61.2189C60.5511 117.59 57.6564 116.248 57.6564 114.384V108.858Z"
		stroke="#00474F" stroke-width="1.742" stroke-linejoin="round" />
	<path id="path17" fill-rule="evenodd" clip-rule="evenodd"
		d="M68.3635 127.747V122.202C68.3635 121.251 67.8627 119.909 66.4153 119.909H60.403C59.5123 119.909 57.7302 121.027 57.7302 122.258V127.747C57.7302 128.585 58.12 130.039 59.0666 130.039H65.3018C66.3034 130.039 68.3635 129.088 68.3635 127.747Z"
		stroke="#00474F" stroke-width="1.742" stroke-linejoin="round" />
	<path id="path18" fill-rule="evenodd" clip-rule="evenodd"
		d="M59.3635 132.722H65.5244C66.7122 132.722 68.0485 133.691 68.0485 134.809C68.0485 135.927 62.5554 160.529 58.25 160.529H57.7308C57.507 154.721 57.7308 135.803 57.7308 134.809C57.7308 133.616 57.9528 132.722 59.3635 132.722Z"
		stroke="#00474F" stroke-width="1.742" stroke-linejoin="round" />
	<path id="path19" fill-rule="evenodd" clip-rule="evenodd"
		d="M24.6934 77.854V77.854C24.4592 78.2077 24.2302 78.551 24.0029 78.8828C24.2302 78.551 24.4592 78.2086 24.6934 77.854Z"
		stroke="#00474F" stroke-width="1.742" stroke-linejoin="round" />
	<path id="path20" fill-rule="evenodd" clip-rule="evenodd"
		d="M22.7572 80.6342V80.6342C22.9075 80.4324 23.0613 80.2173 23.2143 80.0049C20.1753 84.2279 17.6625 86.3222 14.4191 86.9885C14.4191 89.5753 10.8566 93.5859 10.8566 109.576C10.8566 112.819 18.5636 116.99 22.1017 109.576C24.3968 104.767 25.2595 102.763 25.7961 101.582C26.0688 100.633 26.3275 100.072 26.5556 100.072C27.3344 98.7296 27.0005 85.4234 27.0005 85.4234C24.5515 83.2983 25.4168 82.1072 22.7572 80.6342Z"
		stroke="#00474F" stroke-width="1.742" stroke-linejoin="round" />
	<path id="path21" fill-rule="evenodd" clip-rule="evenodd"
		d="M23.3452 79.8257C23.5567 79.5299 23.77 79.2226 23.9867 78.9058C23.77 79.2226 23.5567 79.5299 23.3452 79.8257Z"
		stroke="#00474F" stroke-width="1.742" stroke-linejoin="round" />
	<path id="path22" fill-rule="evenodd" clip-rule="evenodd"
		d="M56.3944 1C46.3162 1 41.2775 9.95333 41.2775 14.6249C41.2775 19.2964 43.0211 38.5671 43.0211 38.5671C43.0211 38.5671 50.1924 48.2991 56.3944 48.2991C62.5965 48.2991 69.7678 38.5671 69.7678 38.5671C69.7678 38.5671 71.5114 19.2964 71.5114 14.6249C71.5114 9.95333 66.4727 1 56.3944 1Z"
		stroke="#00474F" stroke-width="1.742" stroke-linejoin="round" />
	<path fill-rule="evenodd" clip-rule="evenodd"
		d="M71.0172 141.445C71.0172 133.17 73.1699 133.84 73.1699 129.443C73.1699 120.273 71.0172 112.446 71.0172 108.346C71.0172 104.246 71.3878 90.7907 71.3878 90.7907L71.213 90.7503C70.8642 90.7766 70.526 90.7907 70.2 90.7907C65.1901 90.7907 58.2251 87.772 58.2251 87.772H56.3949H54.5639C54.5639 87.772 47.5988 90.7907 42.5881 90.7907C42.2638 90.7907 41.9247 90.7766 41.576 90.7503L41.4003 90.7907C41.4003 90.7907 41.7718 104.246 41.7718 108.346C41.7718 112.446 39.6191 120.273 39.6191 129.443C39.6191 133.84 41.7718 133.17 41.7718 141.445C41.7718 144.352 39.5448 146.401 36.65 146.401C36.65 153.074 52.2381 165.598 56.3949 165.598C60.5509 165.598 76.1389 153.074 76.1389 146.401C73.2433 146.401 71.0172 144.352 71.0172 141.445Z"
		stroke="#00474F" stroke-width="1.742" stroke-linejoin="round" />
	<path id="path24" d="M76.1387 146.402C78.0685 141.37 82.2253 136.413 82.2253 136.413" stroke="#00474F"
		stroke-width="1.742" stroke-linejoin="round" />
	<path id="path25" fill-rule="evenodd" clip-rule="evenodd"
		d="M28.4042 226.796C28.4042 227.697 28.9304 228.216 29.3761 228.216C29.8219 228.216 30.8541 223.138 30.8541 219.755C30.6749 219.761 30.5639 219.296 30.5639 217.994C30.5639 213.362 26.2209 204.883 26.2209 188.632C26.2209 172.381 31.1574 154.639 32.2359 147.616L32.0034 144.342C31.9029 142.485 31.791 137.989 31.791 137.989L30.5639 136.317C30.5639 136.35 30.5639 136.38 30.5639 136.413C30.5639 139.656 25.145 142.637 25.145 155.608C25.145 158.963 21.5825 165.224 21.5825 178.792C21.5825 179.588 21.5895 180.37 21.6017 181.142C21.6052 181.353 21.6122 181.556 21.6166 181.765C21.628 182.319 21.6393 182.872 21.6568 183.414C21.6656 183.673 21.6778 183.925 21.6874 184.182C21.7058 184.663 21.7232 185.145 21.7468 185.616C21.7599 185.887 21.7766 186.151 21.7905 186.419C21.815 186.866 21.8395 187.314 21.8674 187.752C21.8849 188.02 21.905 188.284 21.9234 188.549C21.954 188.978 21.9846 189.406 22.0178 189.826C22.0388 190.083 22.0624 190.335 22.0842 190.59C22.12 191.009 22.1567 191.429 22.1961 191.839C22.2197 192.082 22.245 192.32 22.2686 192.559C22.3114 192.974 22.3543 193.388 22.3997 193.795C22.4251 194.02 22.4504 194.241 22.4766 194.462C22.5247 194.877 22.5745 195.289 22.6261 195.695C22.6514 195.899 22.6785 196.101 22.7048 196.304C22.7598 196.722 22.8158 197.136 22.8743 197.545C22.8997 197.725 22.925 197.903 22.9512 198.082C23.0133 198.508 23.0762 198.931 23.1418 199.348C23.1654 199.501 23.189 199.652 23.2134 199.803C23.2834 200.244 23.355 200.682 23.4276 201.113C23.4477 201.231 23.4678 201.348 23.4879 201.464C23.5674 201.931 23.6496 202.393 23.7317 202.848C23.7448 202.921 23.7588 202.997 23.7728 203.071C23.8654 203.579 23.9607 204.08 24.056 204.573C24.0586 204.587 24.0612 204.602 24.0647 204.616C25.8766 213.942 28.0695 220.698 28.4007 226.793L28.4042 226.796Z"
		stroke="#00474F" stroke-width="1.742" stroke-linejoin="round" />
	<path id="path26" fill-rule="evenodd" clip-rule="evenodd"
		d="M56.3944 48.2996C55.1909 48.2996 53.9515 47.931 52.7349 47.3394H52.7332C52.7332 51.6168 53.574 63.9917 56.3944 63.9917C59.2149 63.9917 60.0557 51.6168 60.0557 47.3394H60.0539C58.8373 47.931 57.5979 48.2996 56.3944 48.2996Z"
		stroke="#00474F" stroke-width="1.742" stroke-linejoin="round" />
	<path id="path27" fill-rule="evenodd" clip-rule="evenodd"
		d="M32.236 147.616C31.1575 154.638 26.2211 172.381 26.2211 188.632C26.2211 204.882 30.5641 213.361 30.5641 217.993C30.5641 222.625 31.9738 216.661 32.791 216.661C33.6065 216.661 36.5878 222.345 36.5878 225.867C36.5878 226.033 36.6026 226.126 36.6315 226.155C36.621 225.977 36.6315 225.773 36.6254 225.588C36.6096 225.113 36.593 224.639 36.6096 224.124C36.6149 223.943 36.6323 223.749 36.6402 223.564C36.6682 222.987 36.6988 222.406 36.7556 221.796C36.7661 221.683 36.7818 221.566 36.7932 221.452C37.1664 217.695 37.974 213.528 38.4485 210.249C38.4634 210.155 38.4809 210.048 38.494 209.956C38.5919 209.26 38.6732 208.608 38.7282 208.013C39.1731 203.245 41.9927 193.412 43.3605 187.594C43.3605 187.594 43.3631 187.543 43.3675 187.466C43.3736 187.368 43.385 187.156 43.4016 186.863C43.4042 186.818 43.4068 186.752 43.4095 186.704C43.4234 186.434 43.4392 186.126 43.4584 185.736C43.4584 185.727 43.4584 185.714 43.4593 185.706C43.4803 185.269 43.5021 184.772 43.5257 184.206C43.5257 184.184 43.5266 184.156 43.5275 184.134C43.5965 182.425 43.6673 180.193 43.6988 177.678C43.7023 177.483 43.7014 177.273 43.7031 177.074C43.7101 176.411 43.7162 175.746 43.7162 175.055C43.7171 174.155 43.6979 172.247 43.6979 172.216C43.6979 167.984 38.855 154.394 36.9706 148.489C36.5965 147.316 36.7731 146.878 36.6498 146.401C35.9095 143.528 31.7903 137.989 31.7903 137.989L32.236 147.616Z"
		stroke="#00474F" stroke-width="1.742" stroke-linejoin="round" />
	<path id="path28" fill-rule="evenodd" clip-rule="evenodd"
		d="M43.6978 172.218C43.6978 172.248 43.6978 172.277 43.6978 172.307C43.7118 173.236 43.717 174.156 43.7161 175.054C43.7161 175.747 43.71 176.411 43.703 177.074C43.7013 177.273 43.7022 177.483 43.6987 177.678C43.6672 180.194 43.5964 182.425 43.5282 184.135C43.5265 184.157 43.5256 184.184 43.5256 184.207C43.502 184.771 43.4802 185.27 43.4601 185.705C43.4592 185.715 43.4592 185.727 43.4583 185.737C43.44 186.126 43.4233 186.435 43.4094 186.703C43.4067 186.753 43.405 186.817 43.4015 186.863C43.3858 187.156 43.3735 187.368 43.3674 187.467C43.363 187.543 43.3604 187.594 43.3604 187.594C41.9926 193.412 39.1739 203.245 38.7281 208.014C38.6731 208.608 38.5918 209.26 38.4939 209.957C38.4939 209.958 38.493 209.96 38.493 209.962C38.3645 210.873 38.2037 211.875 38.0342 212.907C37.8908 213.781 37.7414 214.688 37.5937 215.609C37.5893 215.635 37.5849 215.662 37.5806 215.688C37.4293 216.631 37.2816 217.589 37.1488 218.54C37.1453 218.558 37.1435 218.576 37.1409 218.594C37.0055 219.559 36.8866 220.518 36.7939 221.452C36.7904 221.491 36.7852 221.528 36.7808 221.567C36.773 221.645 36.7616 221.727 36.7546 221.805C36.7004 222.399 36.6698 222.967 36.6427 223.531C36.6384 223.618 36.6322 223.709 36.6279 223.795C36.6209 223.906 36.613 224.018 36.6095 224.125C36.5938 224.638 36.6095 225.113 36.6261 225.589V225.612C36.6357 225.906 36.627 226.224 36.6506 226.502C37.0955 231.719 40.8065 231.422 40.8065 231.422C43.2748 231.422 48.1081 229.881 49.6699 227.047C49.8412 226.43 50.0082 225.8 50.1716 225.165C51.6286 219.496 52.7203 213.123 52.7203 206.524C52.7203 205.367 52.7526 204.119 52.8059 202.807C52.8059 193.526 48.2374 182.225 43.6978 172.218Z"
		stroke="#00474F" stroke-width="1.742" stroke-linejoin="round" />
	<path id="path29" fill-rule="evenodd" clip-rule="evenodd"
		d="M84.3847 226.796C84.3847 227.697 83.8576 228.216 83.4128 228.216C82.967 228.216 81.9348 223.138 81.9348 219.755C82.1131 219.761 82.225 219.296 82.225 217.994C82.225 213.362 86.568 204.883 86.568 188.632C86.568 172.381 81.6315 154.639 80.553 147.616L80.7855 144.342C80.886 142.485 80.9979 137.989 80.9979 137.989L82.225 136.317C82.225 136.35 82.225 136.38 82.225 136.413C82.225 139.656 87.6439 142.637 87.6439 155.608C87.6439 158.963 91.2064 165.224 91.2064 178.792C91.2064 179.588 91.1994 180.37 91.1871 181.142C91.1836 181.353 91.1766 181.556 91.1723 181.765C91.1609 182.319 91.1487 182.872 91.1312 183.414C91.1233 183.673 91.1111 183.925 91.1015 184.182C91.0831 184.663 91.0656 185.145 91.042 185.616C91.0289 185.887 91.0123 186.151 90.9975 186.419C90.9739 186.866 90.9494 187.314 90.9214 187.752C90.9039 188.02 90.8838 188.284 90.8646 188.549C90.8349 188.978 90.8043 189.406 90.7702 189.826C90.7501 190.083 90.7265 190.335 90.7047 190.59C90.6688 191.009 90.6321 191.429 90.5928 191.839C90.5692 192.082 90.5439 192.32 90.5203 192.559C90.4774 192.974 90.4346 193.388 90.3892 193.795C90.3638 194.02 90.3385 194.241 90.3122 194.462C90.2633 194.877 90.2143 195.289 90.1628 195.695C90.1374 195.899 90.1103 196.101 90.0841 196.304C90.0291 196.722 89.9731 197.136 89.9146 197.545C89.8892 197.725 89.8639 197.903 89.8376 198.082C89.7756 198.508 89.7118 198.931 89.6471 199.348C89.6235 199.501 89.5999 199.652 89.5754 199.803C89.5055 200.244 89.4339 200.682 89.3604 201.113C89.3412 201.231 89.3211 201.348 89.301 201.464C89.2215 201.931 89.1393 202.393 89.0572 202.848C89.0432 202.921 89.0301 202.997 89.0161 203.071C88.9226 203.579 88.8282 204.08 88.7329 204.573C88.7303 204.587 88.7276 204.602 88.7242 204.616C86.9123 213.942 84.7194 220.698 84.3882 226.793L84.3847 226.796Z"
		stroke="#00474F" stroke-width="1.742" stroke-linejoin="round" />
	<path id="path30" fill-rule="evenodd" clip-rule="evenodd"
		d="M80.5527 147.616C81.6313 154.638 86.5677 172.381 86.5677 188.632C86.5677 204.882 82.2247 213.361 82.2247 217.993C82.2247 222.625 80.8149 216.661 79.9977 216.661C79.1814 216.661 76.201 222.345 76.201 225.867C76.201 226.033 76.1853 226.126 76.1573 226.155C76.1678 225.977 76.1573 225.773 76.1634 225.588C76.1792 225.113 76.1958 224.639 76.1792 224.124C76.1739 223.943 76.1564 223.749 76.1477 223.564C76.1206 222.987 76.0891 222.406 76.0332 221.796C76.0218 221.683 76.007 221.566 75.9947 221.452C75.6224 217.695 74.8148 213.528 74.3402 210.249C74.3254 210.155 74.3079 210.048 74.2948 209.956C74.1969 209.26 74.1156 208.608 74.0605 208.013C73.6148 203.245 70.7961 193.412 69.4283 187.594C69.4283 187.594 69.4256 187.543 69.4213 187.466C69.4151 187.368 69.4038 187.156 69.3872 186.863C69.3846 186.818 69.3811 186.752 69.3793 186.704C69.3653 186.434 69.3487 186.126 69.3304 185.736C69.3295 185.727 69.3295 185.714 69.3295 185.706C69.3085 185.269 69.2867 184.772 69.2631 184.206C69.2631 184.184 69.2622 184.156 69.2604 184.134C69.1923 182.425 69.1215 180.193 69.09 177.678C69.0865 177.483 69.0874 177.273 69.0848 177.074C69.0786 176.411 69.0717 175.746 69.0717 175.055C69.0717 174.155 69.0909 172.247 69.0909 172.216C69.0909 167.984 73.9338 154.394 75.8182 148.489C76.1923 147.316 76.0157 146.878 76.1389 146.401C76.8792 143.528 80.9985 137.989 80.9985 137.989L80.5527 147.616Z"
		stroke="#00474F" stroke-width="1.742" stroke-linejoin="round" />
	<path id="path31" fill-rule="evenodd" clip-rule="evenodd"
		d="M69.0912 172.218C69.0912 172.248 69.0903 172.277 69.0903 172.307C69.0772 173.236 69.0719 174.156 69.0719 175.054C69.0719 175.747 69.0789 176.411 69.085 177.074C69.0877 177.273 69.0868 177.483 69.0903 177.678C69.1217 180.194 69.1925 182.425 69.2607 184.135C69.2625 184.157 69.2625 184.184 69.2633 184.207C69.2869 184.771 69.3088 185.27 69.3289 185.705C69.3298 185.715 69.3298 185.727 69.3306 185.737C69.349 186.126 69.3647 186.435 69.3796 186.703C69.3813 186.753 69.3839 186.817 69.3874 186.863C69.4032 187.156 69.4154 187.368 69.4207 187.467C69.4259 187.543 69.4285 187.594 69.4285 187.594C70.7964 193.412 73.6151 203.245 74.0608 208.014C74.1159 208.608 74.1972 209.26 74.295 209.957C74.295 209.958 74.2959 209.96 74.2959 209.962C74.4244 210.873 74.5852 211.875 74.7548 212.907C74.8972 213.781 75.0476 214.688 75.1953 215.609C75.1996 215.635 75.204 215.662 75.2084 215.688C75.3596 216.631 75.5073 217.589 75.6402 218.54C75.6428 218.558 75.6454 218.576 75.648 218.594C75.7826 219.559 75.9024 220.518 75.995 221.452C75.9985 221.491 76.0029 221.528 76.0081 221.567C76.016 221.645 76.0273 221.727 76.0343 221.805C76.0885 222.399 76.1191 222.967 76.1462 223.531C76.1506 223.618 76.1567 223.709 76.1611 223.795C76.1681 223.906 76.1759 224.018 76.1794 224.125C76.1952 224.638 76.1794 225.113 76.1628 225.589V225.612C76.1532 225.906 76.1619 226.224 76.1383 226.502C75.6935 231.719 71.9815 231.422 71.9815 231.422C69.5142 231.422 64.68 229.881 63.119 227.047C62.9477 226.43 62.7808 225.8 62.6164 225.165C61.1603 219.496 60.0687 213.123 60.0687 206.524C60.0687 205.367 60.0363 204.119 59.983 202.807C59.983 193.526 64.5515 182.225 69.0912 172.218Z"
		stroke="#00474F" stroke-width="1.742" stroke-linejoin="round" />
	<path id="path32" fill-rule="evenodd" clip-rule="evenodd"
		d="M46.0347 293.403C46.0373 293.41 46.0408 293.416 46.0434 293.422C45.9351 292.458 45.8538 291.49 45.8538 290.536C45.8538 284.871 45.7061 268.583 45.7061 268.583C45.7061 268.583 46.2628 263.215 46.2628 257.624C46.2628 252.033 42.8113 249.237 42.8113 246.778C40.9304 251.992 36.4293 271.935 46.0347 293.403Z"
		stroke="#00474F" stroke-width="1.742" stroke-linejoin="round" />
	<path id="path33" fill-rule="evenodd" clip-rule="evenodd"
		d="M26.3326 252.704C26.3326 264.481 32.6282 279.079 34.3526 288.969C34.3526 288.964 34.3535 288.959 34.3544 288.954C36.9275 261.904 30.1836 254.267 26.566 245.947C26.4244 247.748 26.3326 249.909 26.3326 252.704Z"
		stroke="#00474F" stroke-width="1.742" stroke-linejoin="round" />
	<path id="path34" fill-rule="evenodd" clip-rule="evenodd"
		d="M66.7541 293.403C66.7515 293.41 66.748 293.416 66.7445 293.422C66.8538 292.458 66.935 291.49 66.935 290.536C66.935 284.871 67.0827 268.583 67.0827 268.583C67.0827 268.583 66.526 263.215 66.526 257.624C66.526 252.033 69.9775 249.237 69.9775 246.778C71.8575 251.992 76.3596 271.935 66.7541 293.403Z"
		stroke="#00474F" stroke-width="1.742" stroke-linejoin="round" />
	<path id="path35" fill-rule="evenodd" clip-rule="evenodd"
		d="M86.4558 252.704C86.4558 264.481 80.1611 279.079 78.4367 288.969C78.4358 288.964 78.4349 288.959 78.4341 288.954C75.861 261.904 82.6057 254.267 86.2233 245.947C86.3649 247.748 86.4558 249.909 86.4558 252.704Z"
		stroke="#00474F" stroke-width="1.742" stroke-linejoin="round" />
	<path id="path36" fill-rule="evenodd" clip-rule="evenodd"
		d="M10.8564 109.576C10.8564 108.776 10.8722 108.029 10.8888 107.289C10.8696 108.022 10.8564 108.776 10.8564 109.576Z"
		stroke="#00474F" stroke-width="1.742" stroke-linejoin="round" />
	<path fill-rule="evenodd" clip-rule="evenodd"
		d="M111.538 170.816C110.749 168.93 109.365 163.015 108.969 158.102C107.912 145.008 106.995 125.469 106.04 121.764C104.728 116.668 101.932 111.403 101.932 109.575C101.932 93.5856 98.3697 89.575 98.3697 86.9882C98.3697 85.3107 99.1485 86.2052 99.1485 76.5145C99.1485 66.8239 88.6087 56.6855 78.0681 56.6855L67.8246 50.2743V41.0312H67.7302C65.1562 43.9139 60.558 48.2993 56.3942 48.2993C52.2304 48.2993 47.6322 43.9139 45.0582 41.0312H44.9639V50.2743L34.7204 56.6855C24.1798 56.6855 13.64 66.8239 13.64 76.5145C13.64 86.2052 14.4196 85.3107 14.4196 86.9882C14.4196 89.575 10.8563 93.5856 10.8563 109.575C10.8563 111.403 8.05941 116.668 6.74751 121.764C5.79396 125.469 4.87712 145.008 3.82044 158.102C3.42363 163.015 2.04007 168.93 1.25083 170.816C-0.591596 175.22 8.2954 181.965 8.88973 182.205C9.65711 182.517 9.91844 180.969 10.1789 180.365C11.2478 177.88 7.2693 174.927 7.52539 173.202C7.83392 171.128 8.19838 167.487 9.63177 168.069C11.066 168.65 11.5511 171.951 12.9845 172.532C14.4179 173.113 15.0332 172.727 15.4719 171.635C15.7289 170.995 14.0997 166.989 12.6375 163.228C11.6044 160.57 11.781 158.664 11.781 158.664C11.781 158.664 23.1843 132.052 23.6658 126.684C25.2155 124.212 24.4953 122.974 24.6937 121.182C25.4882 113.987 25.4978 100.071 26.5553 100.071C27.5578 100.071 27.6688 104.432 27.6688 107.116C27.6688 113.266 32.2338 113.489 32.2338 121.764C32.2338 128.025 30.5636 125.454 30.5636 136.412C30.5636 139.655 25.1447 142.637 25.1447 155.608C25.1447 158.962 21.5822 165.224 21.5822 178.791C21.5822 204.733 28.4485 217.369 28.4485 228.328C28.4485 240.068 26.3325 239.062 26.3325 252.704C26.3325 266.346 34.7947 283.789 34.7947 293.294C34.7947 314.204 27.8917 308.837 27.8917 313.645C27.8917 314.913 29.2272 315.733 29.2272 315.733L41.0299 317H47.1157L48.9721 314.764C48.9721 314.764 47.3386 311.931 47.3386 310.44C47.3386 308.949 48.1549 306.042 48.1549 304.252C48.1549 302.463 45.8545 296.201 45.8545 290.536C45.8545 284.871 45.7059 268.582 45.7059 268.582C45.7059 268.582 46.2626 263.215 46.2626 257.624C46.2626 252.033 42.8112 249.238 42.8112 246.778C42.8112 244.318 52.7199 226.427 52.7199 206.523C52.7199 195.9 55.2807 178.008 55.2807 165.597H56.3942H57.5077C57.5077 178.008 60.0686 195.9 60.0686 206.523C60.0686 226.427 69.9782 244.318 69.9782 246.778C69.9782 249.238 66.5258 252.033 66.5258 257.624C66.5258 263.215 67.0826 268.582 67.0826 268.582C67.0826 268.582 66.9349 284.871 66.9349 290.536C66.9349 296.201 64.6336 302.463 64.6336 304.252C64.6336 306.042 65.4499 308.949 65.4499 310.44C65.4499 311.931 63.8172 314.764 63.8172 314.764L65.6728 317H71.7594L83.5613 315.733C83.5613 315.733 84.8976 314.913 84.8976 313.645C84.8976 308.837 77.9947 314.204 77.9947 293.294C77.9947 283.789 86.456 266.346 86.456 252.704C86.456 239.062 84.34 240.068 84.34 228.328C84.34 217.369 91.2063 204.733 91.2063 178.791C91.2063 165.224 87.6438 158.962 87.6438 155.608C87.6438 142.637 82.2249 139.655 82.2249 136.412C82.2249 125.454 80.5546 128.025 80.5546 121.764C80.5546 113.489 85.1196 113.266 85.1196 107.116C85.1196 104.432 85.2315 100.071 86.2331 100.071C87.2907 100.071 87.3003 113.987 88.0948 121.182C88.2932 122.974 87.573 124.212 89.1226 126.684C89.6051 132.052 101.008 158.664 101.008 158.664C101.008 158.664 101.184 160.57 100.152 163.228C98.6896 166.989 97.0596 170.995 97.3165 171.635C97.7553 172.727 98.3706 173.113 99.804 172.532C101.238 171.951 101.723 168.65 103.157 168.069C104.59 167.487 104.955 171.128 105.263 173.202C105.52 174.927 101.541 177.88 102.61 180.365C102.87 180.969 103.132 182.517 103.9 182.205C104.492 181.965 113.38 175.22 111.538 170.816Z"
		stroke="#00474F" stroke-width="1.742" stroke-linejoin="round" />
	<path id="bicepsLeft3" fill-rule="evenodd" clip-rule="evenodd"
		d="M14.6551 126.684C15.4094 122.086 16.1637 120.425 14.6551 117.59C13.1466 114.755 12.1406 118.657 8.08516 117.59C7.58697 118.946 7.11063 120.358 6.74791 121.764C5.92284 124.969 6.1868 140.195 5.58984 152.724H5.59072C5.59072 152.724 8.87177 146.182 9.12349 139.617C9.37433 133.051 13.9009 131.283 14.6551 126.684Z"
		stroke="#00474F" stroke-width="1.742" stroke-linejoin="round" />
	<path id="path38" fill-rule="evenodd" clip-rule="evenodd"
		d="M15.526 134.63C13.3978 141.131 11.7809 158.664 11.7809 158.664C11.7809 158.664 23.1842 132.052 23.6657 126.684C23.6657 126.684 17.6543 128.128 15.526 134.63Z"
		stroke="#00474F" stroke-width="1.742" stroke-linejoin="round" />
	<path id="path39" fill-rule="evenodd" clip-rule="evenodd"
		d="M99.1486 76.515C99.1486 86.2057 98.369 85.3112 98.369 86.9887C93.4701 85.9827 90.2415 81.7334 84.341 71.7812C78.4397 61.8298 73.429 63.3949 73.429 61.0468C73.429 59.257 76.8804 58.4749 78.0682 56.686C88.608 56.686 99.1486 66.8235 99.1486 76.515Z"
		stroke="#00474F" stroke-width="1.742" stroke-linejoin="round" />
	<path id="chestRight" fill-rule="evenodd" clip-rule="evenodd"
		d="M61.0705 67.3089C61.7252 66.0116 71.0911 61.0469 73.4291 61.0469C73.4291 63.3949 78.4398 61.8299 84.3412 71.7812C86.5324 75.4775 88.3547 78.3856 90.0319 80.6345C87.3723 82.1074 88.2376 83.2985 85.7877 85.4236C83.3387 87.5479 75.2112 90.7904 70.2005 90.7904C65.1898 90.7904 58.2247 87.7717 58.2247 87.7717V80.1675C58.2247 71.8936 60.0558 69.3217 61.0705 67.3089Z"
		stroke="#00474F" stroke-width="1.742" stroke-linejoin="round" />
	<path id="path40" fill-rule="evenodd" clip-rule="evenodd"
		d="M88.095 77.854V77.854C88.3292 78.2077 88.5591 78.551 88.7854 78.8828C88.5591 78.551 88.3292 78.2086 88.095 77.854Z"
		stroke="#00474F" stroke-width="1.742" stroke-linejoin="round" />
	<path id="bicepsRight" fill-rule="evenodd" clip-rule="evenodd"
		d="M90.0317 80.6342V80.6342C89.8813 80.4324 89.7275 80.2173 89.5737 80.0049C92.6135 84.2279 95.1263 86.3222 98.3698 86.9885C98.3698 89.5753 101.932 93.5859 101.932 109.576C101.932 112.819 94.2252 116.99 90.6872 109.576C88.392 104.767 87.5285 102.763 86.9927 101.582C86.7191 100.633 86.4613 100.072 86.2332 100.072C85.4544 98.7296 85.7883 85.4234 85.7883 85.4234C88.2373 83.2983 87.372 82.1072 90.0317 80.6342Z"
		stroke="#00474F" stroke-width="1.742" stroke-linejoin="round" />
	<path id="path8" fill-rule="evenodd" clip-rule="evenodd"
		d="M89.4435 79.8257C89.232 79.5299 89.0179 79.2226 88.8011 78.9058C89.0188 79.2226 89.232 79.5299 89.4435 79.8257Z"
		stroke="#00474F" stroke-width="1.742" stroke-linejoin="round" />
	<path id="forearmRight1" fill-rule="evenodd" clip-rule="evenodd"
		d="M98.1338 126.684C97.3795 122.086 96.6252 120.425 98.1338 117.59C99.6423 114.755 100.648 118.657 104.704 117.59C105.202 118.946 105.678 120.358 106.04 121.764C106.866 124.969 106.602 140.195 107.199 152.724H107.198C107.198 152.724 103.917 146.182 103.665 139.617C103.414 133.051 98.8881 131.283 98.1338 126.684Z"
		stroke="#00474F" stroke-width="1.742" stroke-linejoin="round" />
	<path id="forearmRight2" fill-rule="evenodd" clip-rule="evenodd"
		d="M97.2628 134.63C99.391 141.131 101.008 158.664 101.008 158.664C101.008 158.664 89.6046 132.052 89.123 126.684C89.123 126.684 95.1345 128.128 97.2628 134.63Z"
		stroke="#00474F" stroke-width="1.742" stroke-linejoin="round" />
	<path id="path9" fill-rule="evenodd" clip-rule="evenodd"
		d="M41.7048 22.8242C41.7048 21.5479 39.8842 21.188 38.6991 21.188C37.5121 21.188 37.0559 23.0208 37.9684 27.328C38.8808 31.6362 42.5159 32.8888 42.5159 32.8888L41.7048 22.8242Z"
		stroke="#00474F" stroke-width="1.742" stroke-linejoin="round" />
	<path id="path10" fill-rule="evenodd" clip-rule="evenodd"
		d="M71.084 22.8242C71.084 21.5479 72.9037 21.188 74.0898 21.188C75.2767 21.188 75.7329 23.0208 74.8205 27.328C73.9071 31.6362 70.2729 32.8888 70.2729 32.8888L71.084 22.8242Z"
		stroke="#00474F" stroke-width="1.742" stroke-linejoin="round" />
</svg>
